<svg width="36" height="30" viewBox="0 0 36 30" fill="none" xmlns="http://www.w3.org/2000/svg">
<path fill-rule="evenodd" clip-rule="evenodd" d="M14 0H17.9L6.81923 20.1H14.29H16.3H16.4H18.95L17.13 23.4C16.93 23.8 16.43 24 16.03 24H15.41H12.13H3.9H0L0.0566966 23.8976C0.397534 23.2818 0.736246 22.6659 1.07496 22.0501L1.07497 22.0501L1.07499 22.05L1.075 22.05L1.07505 22.0499C1.43253 21.3999 1.79002 20.75 2.15 20.1H2.15923L12.9 0.7C13.1 0.2 13.6 0 14 0ZM21.95 30H18.05L29.1308 9.9L21.66 9.9L19.65 9.9L19.55 9.9L17 9.9L18.82 6.6C19.02 6.2 19.52 6 19.92 6H20.539C20.5394 6 20.5397 6 20.54 6L23.82 6L32.0478 6C32.0485 6 32.0493 6 32.05 6L35.95 6C35.9288 6.03825 35.9076 6.07651 35.8865 6.11476C35.5479 6.72652 35.2115 7.33827 34.875 7.95003C34.5175 8.60002 34.16 9.25001 33.8 9.9H33.7908L23.05 29.3C22.85 29.8 22.35 30 21.95 30Z" fill="#269f99"/>
</svg>
